<?xml version="1.0" encoding="UTF-8"?>
<svg xmlns="http://www.w3.org/2000/svg" xmlns:xlink="http://www.w3.org/1999/xlink" width="125px" height="104px" viewBox="0 0 125 104" version="1.1">
<g id="surface1">
<path style=" stroke:none;fill-rule:nonzero;fill:rgb(0%,0%,0%);fill-opacity:1;" d="M 51.710938 6.027344 C 51.507812 6.144531 49.53125 7.285156 47.3125 8.566406 C 45.097656 9.847656 43.160156 10.972656 43.007812 11.066406 L 42.726562 11.234375 L 42.726562 22.085938 L 43.007812 22.25 C 43.160156 22.34375 44.117188 22.898438 45.132812 23.476562 L 46.972656 24.542969 L 46.972656 44.171875 C 46.972656 54.972656 46.988281 64.019531 47.007812 64.277344 L 47.035156 64.753906 L 85.644531 64.753906 L 85.644531 70.570312 L 86.414062 70.570312 C 86.835938 70.570312 87.398438 70.558594 87.660156 70.539062 L 88.132812 70.507812 L 88.132812 66.480469 C 88.132812 63.832031 88.121094 62.457031 88.085938 62.457031 C 88.0625 62.457031 88.039062 62.414062 88.039062 62.359375 C 88.039062 62.261719 88.003906 62.261719 72.558594 62.261719 L 57.078125 62.261719 L 57.078125 24.691406 L 58.925781 23.628906 C 59.9375 23.042969 60.941406 22.460938 61.15625 22.335938 L 61.546875 22.101562 L 61.558594 16.660156 L 61.570312 11.214844 L 61.265625 11.039062 C 61.097656 10.9375 59.730469 10.152344 58.226562 9.28125 C 56.722656 8.414062 54.886719 7.355469 54.148438 6.925781 C 52.4375 5.929688 52.234375 5.820312 52.148438 5.816406 C 52.105469 5.816406 51.910156 5.910156 51.710938 6.027344 Z M 54.804688 9.761719 C 56.230469 10.582031 57.851562 11.519531 58.414062 11.839844 L 59.421875 12.429688 L 59.421875 16.660156 L 59.417969 20.894531 L 55.84375 22.957031 C 53.875 24.089844 52.234375 25.027344 52.195312 25.042969 C 52.152344 25.058594 50.601562 24.1875 48.511719 22.980469 L 44.898438 20.886719 L 44.882812 16.664062 L 44.875 12.4375 L 48.472656 10.351562 C 50.453125 9.203125 52.105469 8.265625 52.144531 8.265625 C 52.179688 8.257812 53.378906 8.933594 54.804688 9.761719 Z M 50.5 26.582031 C 52.304688 27.628906 52.105469 27.539062 52.351562 27.414062 C 52.46875 27.355469 53.085938 27 53.726562 26.628906 C 54.367188 26.253906 54.898438 25.949219 54.914062 25.949219 C 54.921875 25.949219 54.929688 34.0625 54.929688 43.984375 L 54.929688 62.019531 L 49.121094 62.019531 L 49.121094 43.910156 C 49.121094 33.953125 49.132812 25.804688 49.140625 25.804688 C 49.148438 25.804688 49.761719 26.152344 50.5 26.582031 Z M 50.5 26.582031 "/>
<path style=" stroke:none;fill-rule:nonzero;fill:rgb(0%,0%,0%);fill-opacity:1;" d="M 34.824219 66.355469 L 34.839844 70.398438 L 55.351562 70.414062 L 75.863281 70.425781 L 75.898438 70.171875 C 75.9375 69.839844 75.9375 68.519531 75.898438 68.1875 L 75.863281 67.933594 L 37.304688 67.933594 L 37.304688 62.3125 L 34.8125 62.3125 Z M 34.824219 66.355469 "/>
<path style=" stroke:none;fill-rule:nonzero;fill:rgb(0%,0%,0%);fill-opacity:1;" d="M 63.976562 79.882812 C 63.0625 80.085938 62.34375 80.691406 62.109375 81.457031 C 61.90625 82.121094 62.007812 82.980469 62.351562 83.523438 C 62.582031 83.882812 63.234375 84.46875 63.914062 84.941406 C 64.691406 85.46875 64.890625 85.664062 64.890625 85.886719 C 64.890625 86.078125 64.691406 86.289062 64.460938 86.335938 C 64.390625 86.351562 64.300781 86.375 64.265625 86.386719 C 64.144531 86.421875 63.453125 86.253906 63.039062 86.082031 C 62.8125 85.992188 62.5625 85.917969 62.492188 85.917969 L 62.351562 85.917969 L 62.351562 88.015625 L 62.738281 88.136719 C 63.359375 88.332031 63.710938 88.375 64.496094 88.347656 C 65.28125 88.320312 65.644531 88.238281 66.1875 87.957031 C 66.609375 87.730469 67.054688 87.269531 67.246094 86.867188 C 67.402344 86.539062 67.40625 86.507812 67.40625 85.894531 C 67.40625 85.28125 67.402344 85.242188 67.257812 84.941406 C 67.171875 84.765625 67.027344 84.523438 66.929688 84.402344 C 66.671875 84.078125 66.054688 83.558594 65.503906 83.191406 C 65.234375 83.007812 64.898438 82.746094 64.757812 82.609375 C 64.535156 82.390625 64.496094 82.324219 64.511719 82.199219 C 64.539062 81.898438 64.945312 81.734375 65.425781 81.820312 C 65.578125 81.847656 65.898438 81.945312 66.140625 82.035156 C 66.390625 82.128906 66.648438 82.203125 66.71875 82.203125 L 66.84375 82.203125 L 66.84375 80.148438 L 66.714844 80.097656 C 66.636719 80.066406 66.410156 80 66.210938 79.945312 C 65.726562 79.8125 64.433594 79.773438 63.976562 79.882812 Z M 63.976562 79.882812 "/>
<path style=" stroke:none;fill-rule:nonzero;fill:rgb(0%,0%,0%);fill-opacity:1;" d="M 96.921875 79.886719 C 96.507812 79.972656 95.890625 80.289062 95.570312 80.566406 C 95.03125 81.042969 94.625 81.859375 94.460938 82.785156 C 94.375 83.3125 94.359375 84.570312 94.433594 85.109375 C 94.667969 86.734375 95.429688 87.800781 96.648438 88.199219 C 97.179688 88.371094 98.300781 88.414062 98.898438 88.292969 C 100.292969 88.003906 101.167969 86.96875 101.441406 85.277344 C 101.539062 84.679688 101.539062 83.445312 101.441406 82.847656 C 101.171875 81.191406 100.292969 80.179688 98.867188 79.882812 C 98.4375 79.789062 97.351562 79.792969 96.921875 79.886719 Z M 98.238281 81.976562 C 98.773438 82.257812 99.042969 83.289062 98.929688 84.617188 C 98.851562 85.488281 98.726562 85.855469 98.429688 86.078125 C 97.882812 86.488281 97.285156 86.214844 97.074219 85.453125 C 97.046875 85.34375 96.996094 84.972656 96.96875 84.632812 C 96.882812 83.601562 97.023438 82.664062 97.320312 82.246094 C 97.539062 81.933594 97.929688 81.820312 98.238281 81.976562 Z M 98.238281 81.976562 "/>
<path style=" stroke:none;fill-rule:nonzero;fill:rgb(0%,0%,0%);fill-opacity:1;" d="M 104.550781 79.882812 C 103.636719 80.085938 102.921875 80.691406 102.6875 81.457031 C 102.480469 82.121094 102.582031 82.980469 102.929688 83.523438 C 103.160156 83.882812 103.808594 84.46875 104.492188 84.941406 C 105.269531 85.46875 105.46875 85.664062 105.46875 85.886719 C 105.46875 86.078125 105.269531 86.289062 105.039062 86.335938 C 104.964844 86.351562 104.878906 86.375 104.84375 86.386719 C 104.722656 86.421875 104.027344 86.253906 103.613281 86.082031 C 103.390625 85.992188 103.140625 85.917969 103.066406 85.917969 L 102.929688 85.917969 L 102.929688 88.015625 L 103.316406 88.136719 C 103.9375 88.332031 104.289062 88.375 105.074219 88.347656 C 105.859375 88.320312 106.21875 88.238281 106.761719 87.957031 C 107.1875 87.730469 107.632812 87.269531 107.820312 86.867188 C 107.976562 86.539062 107.984375 86.507812 107.984375 85.894531 C 107.984375 85.28125 107.976562 85.242188 107.832031 84.941406 C 107.75 84.765625 107.601562 84.523438 107.503906 84.402344 C 107.246094 84.078125 106.632812 83.558594 106.078125 83.191406 C 105.8125 83.007812 105.472656 82.746094 105.332031 82.609375 C 105.113281 82.390625 105.074219 82.324219 105.085938 82.199219 C 105.117188 81.898438 105.523438 81.734375 106 81.820312 C 106.152344 81.847656 106.476562 81.945312 106.71875 82.035156 C 106.96875 82.128906 107.226562 82.203125 107.296875 82.203125 L 107.421875 82.203125 L 107.421875 80.148438 L 107.289062 80.097656 C 107.210938 80.066406 106.988281 80 106.789062 79.945312 C 106.304688 79.8125 105.007812 79.773438 104.550781 79.882812 Z M 104.550781 79.882812 "/>
<path style=" stroke:none;fill-rule:nonzero;fill:rgb(0%,0%,0%);fill-opacity:1;" d="M 17.96875 84.132812 L 17.96875 88.214844 L 22.070312 88.214844 L 22.070312 86.160156 L 20.359375 86.160156 L 20.359375 80.050781 L 17.96875 80.050781 Z M 17.96875 84.132812 "/>
<path style=" stroke:none;fill-rule:nonzero;fill:rgb(0%,0%,0%);fill-opacity:1;" d="M 23.25 83.140625 C 23.273438 86.132812 23.273438 86.25 23.375 86.609375 C 23.640625 87.570312 24.105469 88.054688 25 88.3125 C 25.527344 88.46875 26.945312 88.507812 27.617188 88.386719 C 28.734375 88.183594 29.390625 87.550781 29.609375 86.445312 C 29.679688 86.128906 29.6875 85.589844 29.6875 83.058594 L 29.6875 80.050781 L 27.300781 80.050781 L 27.285156 82.96875 C 27.269531 85.789062 27.265625 85.898438 27.171875 86.058594 C 26.855469 86.597656 26.148438 86.617188 25.761719 86.09375 C 25.660156 85.960938 25.660156 85.902344 25.644531 83.003906 L 25.628906 80.050781 L 23.238281 80.050781 Z M 23.25 83.140625 "/>
<path style=" stroke:none;fill-rule:nonzero;fill:rgb(0%,0%,0%);fill-opacity:1;" d="M 31.445312 84.136719 L 31.445312 88.222656 L 33.09375 88.203125 C 34.695312 88.183594 34.757812 88.179688 35.226562 88.054688 C 36.625 87.675781 37.453125 86.875 37.796875 85.550781 C 37.945312 84.992188 37.984375 83.625 37.871094 83.015625 C 37.558594 81.371094 36.558594 80.429688 34.796875 80.125 C 34.472656 80.070312 33.988281 80.050781 32.90625 80.050781 L 31.445312 80.050781 Z M 34.414062 82.132812 C 34.96875 82.359375 35.242188 82.820312 35.351562 83.699219 C 35.414062 84.203125 35.355469 84.867188 35.21875 85.257812 C 35.082031 85.640625 34.71875 85.980469 34.300781 86.109375 C 34.121094 86.167969 33.945312 86.210938 33.90625 86.210938 C 33.847656 86.210938 33.835938 85.875 33.835938 84.109375 L 33.835938 82.007812 L 34.046875 82.035156 C 34.160156 82.054688 34.328125 82.101562 34.414062 82.132812 Z M 34.414062 82.132812 "/>
<path style=" stroke:none;fill-rule:nonzero;fill:rgb(0%,0%,0%);fill-opacity:1;" d="M 39.210938 84.132812 L 39.210938 88.214844 L 43.796875 88.214844 L 43.796875 86.257812 L 41.601562 86.257812 L 41.601562 85.136719 L 43.507812 85.136719 L 43.507812 83.179688 L 41.601562 83.179688 L 41.601562 82.007812 L 43.796875 82.007812 L 43.796875 80.050781 L 39.210938 80.050781 Z M 39.210938 84.132812 "/>
<path style=" stroke:none;fill-rule:nonzero;fill:rgb(0%,0%,0%);fill-opacity:1;" d="M 45.265625 84.128906 L 45.265625 88.214844 L 47.65625 88.214844 L 47.664062 86.699219 L 47.679688 85.183594 L 48.398438 86.691406 L 49.117188 88.191406 L 50.386719 88.203125 L 51.660156 88.214844 L 51.660156 88.09375 C 51.660156 88.027344 51.40625 87.4375 51.09375 86.789062 C 50.78125 86.132812 50.421875 85.375 50.289062 85.101562 L 50.054688 84.601562 L 50.292969 84.449219 C 50.628906 84.234375 50.914062 83.910156 51.089844 83.53125 C 51.226562 83.242188 51.246094 83.144531 51.257812 82.683594 C 51.273438 82.257812 51.257812 82.09375 51.179688 81.828125 C 50.9375 81.023438 50.332031 80.496094 49.316406 80.195312 C 48.96875 80.089844 48.847656 80.082031 47.109375 80.0625 L 45.265625 80.046875 Z M 48.328125 82.003906 C 48.640625 82.164062 48.835938 82.585938 48.726562 82.878906 C 48.609375 83.179688 48.199219 83.425781 47.792969 83.425781 L 47.65625 83.425781 L 47.65625 81.847656 L 47.894531 81.875 C 48.027344 81.890625 48.222656 81.949219 48.328125 82.003906 Z M 48.328125 82.003906 "/>
<path style=" stroke:none;fill-rule:nonzero;fill:rgb(0%,0%,0%);fill-opacity:1;" d="M 52.734375 84.132812 L 52.734375 88.214844 L 57.324219 88.214844 L 57.324219 86.257812 L 55.125 86.257812 L 55.125 85.136719 L 57.03125 85.136719 L 57.03125 83.179688 L 55.125 83.179688 L 55.125 82.007812 L 57.324219 82.007812 L 57.324219 80.050781 L 52.734375 80.050781 Z M 52.734375 84.132812 "/>
<path style=" stroke:none;fill-rule:nonzero;fill:rgb(0%,0%,0%);fill-opacity:1;" d="M 68.066406 81.078125 L 68.066406 82.105469 L 69.53125 82.105469 L 69.53125 88.214844 L 71.921875 88.214844 L 71.921875 82.105469 L 73.390625 82.105469 L 73.390625 80.050781 L 68.066406 80.050781 Z M 68.066406 81.078125 "/>
<path style=" stroke:none;fill-rule:nonzero;fill:rgb(0%,0%,0%);fill-opacity:1;" d="M 74.472656 83.140625 C 74.492188 86.132812 74.492188 86.25 74.59375 86.609375 C 74.863281 87.570312 75.328125 88.054688 76.21875 88.3125 C 76.75 88.46875 78.164062 88.507812 78.835938 88.386719 C 79.957031 88.183594 80.609375 87.550781 80.828125 86.445312 C 80.898438 86.128906 80.90625 85.589844 80.90625 83.058594 L 80.90625 80.050781 L 78.519531 80.050781 L 78.507812 82.96875 C 78.492188 85.789062 78.484375 85.898438 78.394531 86.058594 C 78.078125 86.597656 77.367188 86.617188 76.984375 86.09375 C 76.878906 85.960938 76.878906 85.902344 76.867188 83.003906 L 76.851562 80.050781 L 74.457031 80.050781 Z M 74.472656 83.140625 "/>
<path style=" stroke:none;fill-rule:nonzero;fill:rgb(0%,0%,0%);fill-opacity:1;" d="M 82.714844 84.136719 L 82.714844 88.222656 L 84.367188 88.203125 C 85.96875 88.183594 86.023438 88.179688 86.492188 88.054688 C 87.894531 87.675781 88.71875 86.875 89.066406 85.550781 C 89.214844 84.992188 89.253906 83.625 89.140625 83.015625 C 88.828125 81.371094 87.828125 80.429688 86.0625 80.125 C 85.742188 80.070312 85.257812 80.050781 84.175781 80.050781 L 82.714844 80.050781 Z M 85.683594 82.132812 C 86.242188 82.359375 86.515625 82.820312 86.621094 83.699219 C 86.683594 84.203125 86.625 84.867188 86.488281 85.257812 C 86.351562 85.640625 85.984375 85.980469 85.570312 86.109375 C 85.390625 86.167969 85.214844 86.210938 85.175781 86.210938 C 85.117188 86.210938 85.109375 85.875 85.109375 84.109375 L 85.109375 82.007812 L 85.316406 82.035156 C 85.429688 82.054688 85.59375 82.101562 85.683594 82.132812 Z M 85.683594 82.132812 "/>
<path style=" stroke:none;fill-rule:nonzero;fill:rgb(0%,0%,0%);fill-opacity:1;" d="M 90.527344 84.132812 L 90.527344 88.214844 L 92.921875 88.214844 L 92.921875 80.050781 L 90.527344 80.050781 Z M 90.527344 84.132812 "/>
</g>
</svg>
