<?xml version="1.0" standalone="no"?>
<!DOCTYPE svg PUBLIC "-//W3C//DTD SVG 20010904//EN"
 "http://www.w3.org/TR/2001/REC-SVG-20010904/DTD/svg10.dtd">
<svg version="1.0" xmlns="http://www.w3.org/2000/svg"
 width="2560.000000pt" height="2128.000000pt" viewBox="0 0 2560.000000 2128.000000"
 preserveAspectRatio="xMidYMid meet">

<g transform="translate(0.000000,2128.000000) scale(0.100000,-0.100000)"
fill="#000000" stroke="none">
<path d="M10590 20047 c-41 -24 -446 -258 -900 -520 -454 -262 -851 -492 -882
-511 l-58 -35 0 -1110 0 -1110 58 -34 c31 -19 227 -132 435 -251 l377 -218 0
-4016 c0 -2210 3 -4061 7 -4114 l6 -98 3954 0 3953 0 0 -595 0 -595 158 0 c86
0 201 3 255 7 l97 6 0 824 c0 542 -3 823 -10 823 -5 0 -10 9 -10 20 0 20 -7
20 -3170 20 l-3170 0 0 3844 0 3844 378 217 c207 120 413 239 457 265 l80 48
2 1113 3 1114 -63 36 c-34 21 -314 182 -622 360 -308 177 -684 394 -835 482
-351 204 -392 226 -410 227 -9 0 -49 -19 -90 -43z m634 -764 c292 -168 624
-360 739 -426 l207 -120 0 -866 -1 -866 -732 -422 c-403 -232 -739 -424 -747
-427 -9 -3 -327 175 -755 422 l-740 428 -3 864 -2 865 737 427 c406 235 744
427 752 427 7 1 253 -137 545 -306z m-882 -3442 c370 -214 329 -196 380 -170
24 12 150 84 281 160 131 77 240 139 243 139 2 0 4 -1660 4 -3690 l0 -3690
-595 0 -595 0 0 3705 c0 2038 2 3705 4 3705 2 0 127 -71 278 -159z"/>
<path d="M7132 7703 l3 -828 4201 -3 4201 -2 7 52 c8 68 8 338 0 406 l-7 52
-3948 0 -3949 0 0 575 0 575 -255 0 -255 0 2 -827z"/>
<path d="M13102 4935 c-187 -42 -334 -166 -382 -322 -42 -136 -21 -312 50
-423 47 -74 180 -194 320 -290 159 -108 200 -148 200 -194 0 -39 -41 -82 -88
-92 -15 -3 -33 -8 -40 -10 -25 -7 -167 27 -252 62 -46 19 -97 34 -112 34 l-28
0 0 -215 0 -214 79 -25 c127 -40 199 -49 360 -43 161 5 235 22 346 80 87 46
178 140 217 223 32 67 33 73 33 199 0 125 -1 133 -31 195 -17 36 -47 85 -67
110 -53 66 -179 173 -292 248 -55 37 -124 91 -153 119 -45 45 -53 58 -50 84 6
61 89 95 187 77 31 -5 97 -25 147 -44 51 -19 104 -34 118 -34 l26 0 0 210 0
210 -27 11 c-16 6 -62 20 -103 31 -99 27 -364 35 -458 13z"/>
<path d="M19850 4934 c-85 -18 -212 -82 -277 -139 -111 -98 -194 -265 -227
-454 -18 -108 -21 -365 -6 -476 48 -332 204 -550 454 -632 108 -35 338 -44
460 -19 286 59 465 271 521 617 20 122 20 375 0 497 -55 339 -235 546 -527
607 -88 19 -310 18 -398 -1z m269 -428 c110 -57 165 -268 142 -540 -16 -178
-42 -253 -103 -299 -112 -84 -234 -28 -277 128 -6 22 -16 98 -22 168 -17 211
11 403 72 488 45 64 125 87 188 55z"/>
<path d="M21412 4935 c-187 -42 -334 -166 -382 -322 -42 -136 -21 -312 50
-423 47 -74 180 -194 320 -290 159 -108 200 -148 200 -194 0 -39 -41 -82 -88
-92 -15 -3 -33 -8 -40 -10 -25 -7 -167 27 -252 62 -46 19 -97 34 -112 34 l-28
0 0 -215 0 -214 79 -25 c127 -40 199 -49 360 -43 161 5 235 22 346 80 87 46
178 140 217 223 32 67 33 73 33 199 0 125 -1 133 -31 195 -17 36 -47 85 -67
110 -53 66 -179 173 -292 248 -55 37 -124 91 -153 119 -45 45 -53 58 -50 84 6
61 89 95 187 77 31 -5 97 -25 147 -44 51 -19 104 -34 118 -34 l26 0 0 210 0
210 -27 11 c-16 6 -62 20 -103 31 -99 27 -364 35 -458 13z"/>
<path d="M3680 4065 l0 -835 420 0 420 0 0 210 0 210 -175 0 -175 0 0 625 0
625 -245 0 -245 0 0 -835z"/>
<path d="M4762 4268 c4 -612 4 -636 25 -710 55 -196 150 -295 333 -348 108
-32 398 -40 536 -15 229 41 363 171 408 397 14 65 16 175 16 693 l0 615 -245
0 -244 0 -3 -597 c-3 -577 -4 -599 -23 -632 -65 -110 -210 -114 -289 -7 -21
27 -21 39 -24 632 l-3 604 -245 0 -245 0 3 -632z"/>
<path d="M6440 4064 l0 -836 338 4 c328 4 340 5 436 31 287 77 456 241 527
512 30 114 38 394 15 519 -64 336 -269 529 -630 591 -66 11 -165 15 -387 15
l-299 0 0 -836z m608 410 c114 -46 170 -140 192 -320 13 -103 1 -239 -27 -319
-28 -78 -103 -148 -188 -174 -37 -12 -73 -21 -81 -21 -12 0 -14 69 -14 430 l0
430 43 -6 c23 -4 57 -13 75 -20z"/>
<path d="M8030 4065 l0 -835 470 0 470 0 0 200 0 200 -225 0 -225 0 0 115 0
115 195 0 195 0 0 200 0 200 -195 0 -195 0 0 120 0 120 225 0 225 0 0 200 0
200 -470 0 -470 0 0 -835z"/>
<path d="M9270 4066 l0 -836 245 0 245 0 2 310 3 310 147 -308 147 -307 260
-3 261 -2 0 25 c0 13 -52 134 -116 267 -64 134 -138 289 -165 345 l-48 102 49
31 c69 44 127 111 163 188 28 59 32 79 35 174 3 87 0 120 -16 175 -50 164
-174 272 -382 334 -71 21 -96 23 -452 27 l-378 3 0 -835z m628 435 c64 -33
104 -119 81 -179 -24 -62 -108 -112 -191 -112 l-28 0 0 161 0 162 49 -6 c27
-3 67 -15 89 -26z"/>
<path d="M10800 4065 l0 -835 470 0 470 0 0 200 0 200 -225 0 -225 0 0 115 0
115 195 0 195 0 0 200 0 200 -195 0 -195 0 0 120 0 120 225 0 225 0 0 200 0
200 -470 0 -470 0 0 -835z"/>
<path d="M13940 4690 l0 -210 150 0 150 0 0 -625 0 -625 245 0 245 0 0 625 0
625 150 0 150 0 0 210 0 210 -545 0 -545 0 0 -210z"/>
<path d="M15252 4268 c4 -612 4 -636 25 -710 55 -196 150 -295 333 -348 108
-32 398 -40 536 -15 229 41 363 171 408 397 14 65 16 175 16 693 l0 615 -245
0 -244 0 -3 -597 c-3 -577 -4 -599 -23 -632 -65 -110 -210 -114 -289 -7 -21
27 -21 39 -24 632 l-3 604 -245 0 -245 0 3 -632z"/>
<path d="M16940 4064 l0 -836 338 4 c328 4 340 5 436 31 287 77 456 241 527
512 30 114 38 394 15 519 -64 336 -269 529 -630 591 -66 11 -165 15 -387 15
l-299 0 0 -836z m608 410 c114 -46 170 -140 192 -320 13 -103 1 -239 -27 -319
-28 -78 -103 -148 -188 -174 -37 -12 -73 -21 -81 -21 -12 0 -14 69 -14 430 l0
430 43 -6 c23 -4 57 -13 75 -20z"/>
<path d="M18540 4065 l0 -835 245 0 245 0 0 835 0 835 -245 0 -245 0 0 -835z"/>
</g>
</svg>
